# xmcd
#
# Track frame offsets: 
#        300
#        10875
#        24084
#        37727
#        49725
#        63757
#        80675
#        96455
#        109646
#        122605
#
# Disc length: 1933 seconds
#
# Revision: 0
# Processed by: cddbd v1.5.2PL0 Copyright (c) Steve Scherf et al.
# Submitted via: ExactAudioCopy v0.95b4
#
DISCID=7007890a
DTITLE=Linda Ronstadt - Simple Dreams
DYEAR=1977
DGENRE=Rock
TTITLE0=It's So Easy
TTITLE1=Carmelita
TTITLE2=Simple Man, Simple Dream
TTITLE3=Sorrow Lives Here
TTITLE4=Traccia AuI Will Never Marry
TTITLE5=Blue Bayou
TTITLE6=Poor Poor Pitiful Me
TTITLE7=Maybe I'm Right
TTITLE8=Tumbling Dice
TTITLE9=Old Paint
EXTD=YEAR: 1977
EXTT0=
EXTT1=
EXTT2=
EXTT3=
EXTT4=
EXTT5=
EXTT6=
EXTT7=
EXTT8=
EXTT9=
PLAYORDER=
